<svg width="1440" height="1437" viewBox="0 0 1440 1437" fill="none" xmlns="http://www.w3.org/2000/svg">
<g filter="url(#filter0_iiii_498_3465)">
<path d="M495.669 1284.55C409.814 1231.64 479.286 1077.47 410.779 1003.97C321.145 907.805 133.059 937.269 66.7176 824.333C-0.616309 709.708 26.623 558.339 77.4128 436.471C132.345 304.661 226.133 179.63 358.961 123.104C490.227 67.2435 645.619 87.7873 780.143 137.422C899.344 181.403 964.452 299.515 1060.52 381.954C1153.39 461.654 1295.23 499.485 1335.44 613.972C1375.73 728.657 1330.78 860.971 1264.44 962.519C1205.76 1052.33 1091.8 1081.56 996.557 1132.71C923.781 1171.8 851.622 1202.78 772.319 1226.82C680.413 1254.68 577.573 1335.04 495.669 1284.55Z" fill="#F5F5F5"/>
</g>
<defs>
<filter id="filter0_iiii_498_3465" x="-86" y="0" width="1533.69" height="1452.04" filterUnits="userSpaceOnUse" color-interpolation-filters="sRGB">
<feFlood flood-opacity="0" result="BackgroundImageFix"/>
<feBlend mode="normal" in="SourceGraphic" in2="BackgroundImageFix" result="shape"/>
<feColorMatrix in="SourceAlpha" type="matrix" values="0 0 0 0 0 0 0 0 0 0 0 0 0 0 0 0 0 0 127 0" result="hardAlpha"/>
<feOffset dy="16"/>
<feGaussianBlur stdDeviation="16"/>
<feComposite in2="hardAlpha" operator="arithmetic" k2="-1" k3="1"/>
<feColorMatrix type="matrix" values="0 0 0 0 0 0 0 0 0 0 0 0 0 0 0 0 0 0 0.16 0"/>
<feBlend mode="normal" in2="shape" result="effect1_innerShadow_498_3465"/>
<feColorMatrix in="SourceAlpha" type="matrix" values="0 0 0 0 0 0 0 0 0 0 0 0 0 0 0 0 0 0 127 0" result="hardAlpha"/>
<feOffset dy="8"/>
<feGaussianBlur stdDeviation="8"/>
<feComposite in2="hardAlpha" operator="arithmetic" k2="-1" k3="1"/>
<feColorMatrix type="matrix" values="0 0 0 0 0 0 0 0 0 0 0 0 0 0 0 0 0 0 0.12 0"/>
<feBlend mode="normal" in2="effect1_innerShadow_498_3465" result="effect2_innerShadow_498_3465"/>
<feColorMatrix in="SourceAlpha" type="matrix" values="0 0 0 0 0 0 0 0 0 0 0 0 0 0 0 0 0 0 127 0" result="hardAlpha"/>
<feOffset dy="4"/>
<feGaussianBlur stdDeviation="4"/>
<feComposite in2="hardAlpha" operator="arithmetic" k2="-1" k3="1"/>
<feColorMatrix type="matrix" values="0 0 0 0 0 0 0 0 0 0 0 0 0 0 0 0 0 0 0.12 0"/>
<feBlend mode="normal" in2="effect2_innerShadow_498_3465" result="effect3_innerShadow_498_3465"/>
<feColorMatrix in="SourceAlpha" type="matrix" values="0 0 0 0 0 0 0 0 0 0 0 0 0 0 0 0 0 0 127 0" result="hardAlpha"/>
<feOffset dy="2"/>
<feGaussianBlur stdDeviation="2"/>
<feComposite in2="hardAlpha" operator="arithmetic" k2="-1" k3="1"/>
<feColorMatrix type="matrix" values="0 0 0 0 0 0 0 0 0 0 0 0 0 0 0 0 0 0 0.12 0"/>
<feBlend mode="normal" in2="effect3_innerShadow_498_3465" result="effect4_innerShadow_498_3465"/>
</filter>
</defs>
</svg>
